<?xml version="1.0"?>
<svg width="24" height="24" xmlns="http://www.w3.org/2000/svg" xmlns:svg="http://www.w3.org/2000/svg">
 <g>
  <path fill="#01624f" d="M18.647,13.605l-0.285-0.204c0.855-1.019,1.386-2.323,1.386-3.79c0-3.219-2.567-5.826-5.787-5.826
		c-3.178,0-5.744,2.607-5.744,5.826s2.566,5.786,5.785,5.786c1.427,0,2.771-0.529,3.79-1.386l0.285,0.245v0.692l4.441,4.482
		l1.345-1.345l-4.482-4.481H18.647z M10.01,9.611c0-2.24,1.752-4.033,3.992-4.033c2.242,0,4.034,1.793,4.034,4.033
		c0,2.241-1.792,3.994-4.034,3.994C11.762,13.605,10.01,11.853,10.01,9.611z" />
 </g>
</svg>